<svg width="44" height="44" viewBox="0 0 44 44" fill="none" xmlns="http://www.w3.org/2000/svg">
<g clip-path="url(#clip0_1376_23)">
<path d="M22 0C9.86207 0 0 9.86207 0 22C0 34.1379 9.86207 44 22 44C34.1379 44 44 34.1379 44 22C44 9.86207 34.1379 0 22 0ZM22 43.1075C10.3529 43.1075 0.892495 33.6471 0.892495 22C0.892495 10.3529 10.3529 0.892495 22 0.892495C33.6471 0.892495 43.1075 10.3529 43.1075 22C43.1075 33.6471 33.6471 43.1075 22 43.1075Z" fill="#565449"/>
<path d="M22 2.23124C11.1116 2.23124 2.23124 11.1116 2.23124 22C2.23124 32.8884 11.1116 41.7688 22 41.7688C32.8884 41.7688 41.7688 32.8884 41.7688 22C41.7688 11.1116 32.8884 2.23124 22 2.23124ZM22 41.501C11.2454 41.501 2.49899 32.7546 2.49899 22C2.49899 11.2454 11.2454 2.49899 22 2.49899C32.7546 2.49899 41.501 11.2454 41.501 22C41.501 32.7546 32.7546 41.501 22 41.501Z" fill="#565449"/>
<path d="M22 3.7931C11.9594 3.7931 3.7931 11.9594 3.7931 22C3.7931 32.0406 11.9594 40.2069 22 40.2069C32.0406 40.2069 40.2069 32.0406 40.2069 22C40.2069 11.9594 32.0406 3.7931 22 3.7931ZM22 39.9391C12.0933 39.9391 4.06085 31.9067 4.06085 22C4.06085 12.0933 12.0933 4.06085 22 4.06085C31.9067 4.06085 39.9391 12.0933 39.9391 22C39.9391 31.9067 31.9067 39.9391 22 39.9391Z" fill="#565449"/>
<path d="M22 5.35497C12.8073 5.35497 5.35497 12.8073 5.35497 22C5.35497 31.1927 12.8073 38.645 22 38.645C31.1927 38.645 38.645 31.1927 38.645 22C38.645 12.8073 31.1927 5.35497 22 5.35497ZM22 38.3773C12.9858 38.3773 5.62272 31.0142 5.62272 22C5.62272 12.9858 12.9858 5.62272 22 5.62272C31.0142 5.62272 38.3773 12.9858 38.3773 22C38.3773 31.0142 31.0142 38.3773 22 38.3773Z" fill="#565449"/>
<path d="M22 6.91684C13.6998 6.91684 6.91684 13.6998 6.91684 22C6.91684 30.3002 13.6998 37.0832 22 37.0832C30.3002 37.0832 37.0832 30.3002 37.0832 22C37.0832 13.6998 30.3002 6.91684 22 6.91684ZM22 36.8154C13.8337 36.8154 7.18458 30.1663 7.18458 22C7.18458 13.8337 13.8337 7.18458 22 7.18458C30.1663 7.18458 36.8154 13.8337 36.8154 22C36.8154 30.1663 30.1663 36.8154 22 36.8154Z" fill="#565449"/>
<path d="M22 8.4787C14.5477 8.4787 8.4787 14.5477 8.4787 22C8.4787 29.4523 14.5477 35.5213 22 35.5213C29.4523 35.5213 35.5213 29.4523 35.5213 22C35.5213 14.5477 29.4523 8.4787 22 8.4787ZM22 35.2536C14.6815 35.2536 8.74645 29.3185 8.74645 22C8.74645 14.6815 14.6815 8.74645 22 8.74645C29.3185 8.74645 35.2536 14.6815 35.2536 22C35.2536 29.3185 29.3185 35.2536 22 35.2536Z" fill="#565449"/>
<path d="M22 10.0406C15.3955 10.0406 10.0406 15.3955 10.0406 22C10.0406 28.6045 15.3955 33.9594 22 33.9594C28.6045 33.9594 33.9594 28.6045 33.9594 22C33.9594 15.3955 28.6045 10.0406 22 10.0406ZM22 33.6917C15.574 33.6917 10.3083 28.426 10.3083 22C10.3083 15.574 15.574 10.3083 22 10.3083C28.426 10.3083 33.6917 15.574 33.6917 22C33.6917 28.426 28.426 33.6917 22 33.6917Z" fill="#565449"/>
<path d="M22 11.6024C16.288 11.6024 11.6024 16.288 11.6024 22C11.6024 27.712 16.288 32.3976 22 32.3976C27.712 32.3976 32.3976 27.712 32.3976 22C32.3976 16.288 27.712 11.6024 22 11.6024ZM22 32.1298C16.4219 32.1298 11.8702 27.5781 11.8702 22C11.8702 16.4219 16.4219 11.8702 22 11.8702C27.5781 11.8702 32.1298 16.4219 32.1298 22C32.1298 27.5781 27.5781 32.1298 22 32.1298Z" fill="#565449"/>
<path d="M22 13.1643C17.1359 13.1643 13.1643 17.1359 13.1643 22C13.1643 26.8641 17.1359 30.8357 22 30.8357C26.8641 30.8357 30.8357 26.8641 30.8357 22C30.8357 17.1359 26.8641 13.1643 22 13.1643ZM22 30.568C17.2698 30.568 13.432 26.7302 13.432 22C13.432 17.2698 17.2698 13.432 22 13.432C26.7302 13.432 30.568 17.2698 30.568 22C30.568 26.7302 26.7302 30.568 22 30.568Z" fill="#565449"/>
<path d="M22 14.7262C17.9838 14.7262 14.7262 17.9838 14.7262 22C14.7262 26.0162 17.9838 29.2738 22 29.2738C26.0162 29.2738 29.2738 26.0162 29.2738 22C29.2738 17.9838 26.0162 14.7262 22 14.7262ZM22 29.0061C18.1176 29.0061 14.9939 25.8824 14.9939 22C14.9939 18.1176 18.1176 14.9939 22 14.9939C25.8824 14.9939 29.0061 18.1176 29.0061 22C29.0061 25.8824 25.8824 29.0061 22 29.0061Z" fill="#565449"/>
<path d="M22 19.5456C20.6613 19.5456 19.5456 20.6613 19.5456 22C19.5456 23.3387 20.6613 24.4544 22 24.4544C23.3387 24.4544 24.4544 23.3387 24.4544 22C24.4544 20.6613 23.3387 19.5456 22 19.5456ZM22 23.5619C21.1521 23.5619 20.4381 22.8479 20.4381 22C20.4381 21.1521 21.1521 20.4381 22 20.4381C22.8479 20.4381 23.5619 21.1521 23.5619 22C23.5619 22.8479 22.8479 23.5619 22 23.5619Z" fill="#565449"/>
</g>
<defs>
<clipPath id="clip0_1376_23">
<rect width="44" height="44" fill="white"/>
</clipPath>
</defs>
</svg>
