<svg width="22" height="22" viewBox="0 0 22 22" fill="none" xmlns="http://www.w3.org/2000/svg">
  <g clip-path="url(#clip0_1376_18)">
    <path fill-rule="evenodd" clip-rule="evenodd"
      d="M0.370955 21.1592C-0.123652 20.6645 -0.123652 19.8626 0.370955 19.3681L17.206 2.53294H6.33236C5.63291 2.53294 5.06589 1.96592 5.06589 1.26647C5.06589 0.567024 5.63291 0 6.33236 0H20.2635C20.5994 0 20.9216 0.133435 21.1592 0.370949C21.3965 0.608463 21.53 0.930577 21.53 1.26647V15.1977C21.53 15.8971 20.9629 16.4641 20.2635 16.4641C19.5642 16.4641 18.9971 15.8971 18.9971 15.1977V4.32401L2.162 21.1592C1.66742 21.6536 0.865537 21.6536 0.370955 21.1592Z"
      fill="#11120D" />
  </g>
  <defs>
    <clipPath id="clip0_1376_18">
      <rect width="21.53" height="21.53" fill="white" transform="translate(0.470001 0.234863)" />
    </clipPath>
  </defs>
</svg>