<svg width="119" height="119" viewBox="0 0 119 119" fill="none" xmlns="http://www.w3.org/2000/svg">
<g clip-path="url(#clip0_1376_47)">
<path d="M118.091 69.6656C117.582 72.5187 111.487 74.3609 102.551 74.3609H102.325C98.985 71.6401 94.9279 68.872 90.3613 66.2739C89.0498 65.5276 87.7383 64.819 86.4268 64.1577C87.8987 63.9688 89.3706 63.7515 90.8519 63.4964C95.8997 62.6178 100.674 61.3896 104.854 59.9347C113.194 62.8918 118.629 66.6329 118.082 69.6561L118.091 69.6656ZM111.024 88.8155C110.203 90.2138 108.033 90.5066 106.354 90.5066C103.269 90.5066 99.1548 89.5713 94.5788 87.9086C92.805 84.9326 90.5972 81.7772 88.0308 78.5651C87.9459 78.4611 87.8515 78.3478 87.7666 78.2439C87.5496 77.9699 87.3326 77.7053 87.1062 77.4314C86.7854 77.044 86.4646 76.6567 86.1344 76.2788C85.1625 75.1356 84.1719 74.0303 83.1812 72.9722C84.6059 73.2839 86.0589 73.5768 87.5591 73.8319C92.5314 74.6916 97.4848 75.164 101.948 75.2018C108.76 80.7947 112.572 86.1514 111.015 88.8061L111.024 88.8155ZM79.8506 114.607C79.5864 114.702 79.2939 114.749 78.992 114.749C76.0105 114.749 71.8119 110.29 67.8397 103.459C68.5567 99.255 68.953 94.4179 68.953 89.2312C68.953 87.748 68.9153 86.2742 68.8492 84.8287C69.7361 85.9719 70.6608 87.115 71.642 88.2676C74.0574 91.1018 76.5483 93.7093 79.0108 95.9861C79.9449 96.8459 80.8601 97.6678 81.7753 98.433C83.3416 107.04 82.7755 113.558 79.8506 114.607ZM59.499 118.15C56.376 118.15 53.5832 112.217 52.0736 103.591C54.2248 99.8596 56.2911 95.4476 58.0649 90.6294C58.5838 89.2218 59.0556 87.833 59.499 86.4631C59.933 87.833 60.4142 89.2218 60.9332 90.6294C62.707 95.4382 64.7733 99.8502 66.9245 103.591C65.4148 112.217 62.6221 118.15 59.499 118.15ZM40.0061 114.758C39.7042 114.758 39.4117 114.711 39.1475 114.617C36.2132 113.568 35.6471 107.049 37.2227 98.4425C40.5533 95.646 44.0254 92.1788 47.3466 88.277C48.3279 87.1339 49.2525 85.9813 50.1394 84.8382C50.0733 86.2742 50.0356 87.7385 50.0356 89.2407C50.0356 94.4273 50.4413 99.2644 51.1489 103.469C47.1862 110.299 42.9781 114.758 40.0061 114.758ZM23.2776 105.056C22.4285 105.056 21.7491 104.848 21.2491 104.432C19.5791 103.053 19.881 99.3589 22.0794 94.2951C22.8625 92.4906 23.8532 90.5728 25.0231 88.5982C29.1463 87.0772 33.6279 84.9893 38.0907 82.448C39.4022 81.7016 40.676 80.9364 41.912 80.1617C41.3459 81.4938 40.8081 82.8542 40.2891 84.2619C38.487 89.1556 37.185 93.851 36.3924 98.0551C31.1654 102.42 26.3912 105.056 23.2871 105.056H23.2776ZM12.6348 90.5161C10.9554 90.5161 8.78528 90.2232 7.96442 88.825C6.40763 86.1608 10.2194 80.8136 17.0316 75.2207C21.4849 75.1829 26.4384 74.7105 31.4201 73.8508C32.9203 73.5863 34.3827 73.2934 35.8075 72.9911C34.8168 74.0492 33.8261 75.1545 32.8543 76.2977C29.552 80.1806 26.6837 84.158 24.4287 87.9275C19.8432 89.5997 15.7295 90.535 12.6348 90.535V90.5161ZM16.4372 74.3704C7.51154 74.3704 1.41646 72.5281 0.897524 69.675C0.359722 66.6518 5.78491 62.9106 14.1161 59.9536C18.1921 61.3802 22.9474 62.6083 28.1273 63.5058C29.6086 63.7609 31.0899 63.9877 32.5523 64.1766C31.2409 64.8379 29.9388 65.5465 28.6179 66.2928C24.0513 68.8909 20.0036 71.659 16.6636 74.3798H16.4277L16.4372 74.3704ZM7.96442 30.1469C8.78528 28.7487 10.9554 28.4558 12.6348 28.4558C15.7201 28.4558 19.8338 29.3911 24.4098 31.0539C26.6082 34.7289 29.4576 38.6968 32.8448 42.6837C33.8166 43.8268 34.8073 44.9322 35.798 45.9903C34.3733 45.6785 32.9109 45.3856 31.4107 45.1306C28.816 44.6771 26.2214 44.337 23.7022 44.1008C21.4 43.8929 19.1545 43.7796 17.0221 43.7607C10.21 38.1678 6.3982 32.8205 7.95499 30.1564L7.96442 30.1469ZM21.2491 14.5397C21.7491 14.1241 22.4285 13.9162 23.2776 13.9162C26.3818 13.9162 31.1654 16.5615 36.3924 20.9168C37.185 25.1209 38.4776 29.8163 40.2891 34.7006C40.8081 36.1082 41.3553 37.4781 41.912 38.8102C40.6854 38.0355 39.4117 37.2703 38.0907 36.5239C33.6374 33.9826 29.1651 31.9041 25.042 30.3831C20.5792 22.8251 18.8525 16.5143 21.2396 14.5397H21.2491ZM39.1475 4.35539C39.4117 4.26092 39.7042 4.21368 40.0061 4.21368C42.9781 4.21368 47.1862 8.67288 51.1489 15.4939C50.4319 19.698 50.0356 24.5351 50.0356 29.7312C50.0356 30.2319 50.0356 30.7327 50.045 31.2334C50.045 31.5829 50.0545 31.9325 50.0733 32.282C50.0733 32.4143 50.0733 32.556 50.0828 32.6883C50.0922 33.1795 50.1205 33.6614 50.1394 34.1337C49.2525 32.9906 48.3279 31.8475 47.3466 30.6949C44.0254 26.7931 40.5533 23.3259 37.2227 20.5294C35.6471 11.9228 36.2132 5.41351 39.1475 4.35539ZM78.992 4.21368C79.2939 4.21368 79.577 4.26092 79.8506 4.35539C81.8885 5.08285 82.8887 8.66343 82.5868 14.1618C82.483 16.1269 82.2093 18.262 81.8036 20.5105C78.473 23.3164 74.9821 26.7836 71.6515 30.6949C70.6796 31.838 69.755 32.9811 68.8587 34.1337C68.9247 32.6977 68.9624 31.2334 68.9624 29.7312C68.9624 29.2116 68.9624 28.7015 68.953 28.1818C68.953 28.1252 68.953 28.0685 68.953 28.0118C68.953 27.5867 68.9341 27.1615 68.9247 26.7364C68.9153 26.3679 68.8964 26.0184 68.887 25.6594C68.887 25.546 68.887 25.4326 68.8775 25.3287C68.7171 21.7954 68.368 18.4888 67.8585 15.4939C71.8307 8.66343 76.0293 4.21368 79.0108 4.21368H78.992ZM95.7204 13.9162C96.5602 13.9162 97.2489 14.1335 97.749 14.5397C100.136 16.5143 98.4189 22.8251 93.9561 30.3831C89.8329 31.9041 85.3701 33.9826 80.9167 36.5239C79.5958 37.2703 78.3221 38.0355 77.0955 38.8102C77.6616 37.4781 78.1994 36.1082 78.7184 34.7006C80.4733 29.9391 81.7942 25.2248 82.5962 20.9262C87.8232 16.552 92.6163 13.9068 95.7204 13.9068V13.9162ZM106.363 28.4558C108.043 28.4558 110.213 28.7487 111.034 30.1469C112.119 32.0081 110.552 35.3713 106.741 39.396C105.382 40.832 103.787 42.2963 102.004 43.7512C97.5414 43.789 92.5691 44.2614 87.5874 45.1211C86.0872 45.3762 84.6247 45.6691 83.2095 45.9808C84.2002 44.9227 85.1814 43.8174 86.1627 42.6742C89.5499 38.6968 92.3993 34.7289 94.5977 31.0444C99.1737 29.3817 103.287 28.4464 106.373 28.4464L106.363 28.4558ZM75.4538 59.4812C78.4825 58.4703 81.7376 57.1194 85.0682 55.485C86.9269 55.7022 88.8234 55.9668 90.7198 56.2974C95.3619 57.1005 99.7304 58.2153 103.561 59.4907C99.6832 60.785 95.3147 61.8714 90.7198 62.665C88.8234 62.9957 86.9363 63.2602 85.0682 63.4775C81.7282 61.8431 78.473 60.4921 75.4444 59.4812H75.4538ZM75.8878 64.0349C75.0104 64.0349 74.1612 64.016 73.3403 63.9782C71.8873 62.8823 70.4721 61.9376 69.1417 61.1534C70.6796 60.87 72.3308 60.4543 74.0857 59.9158C77.0012 60.8322 80.1808 62.0887 83.4548 63.6381C80.8224 63.8932 78.2749 64.0254 75.8878 64.0254V64.0349ZM74.4914 64.8663C74.9537 64.8757 75.4066 64.8852 75.8878 64.8852C78.7184 64.8852 81.7753 64.7057 84.9172 64.3561C86.5778 65.178 88.2667 66.0661 89.9367 67.0297C94.0221 69.3538 97.7395 71.8668 100.891 74.3609C96.7677 74.2665 92.2578 73.8036 87.7289 73.0194C85.8136 72.6888 83.9454 72.3014 82.1339 71.8763C79.5581 69.2121 76.9634 66.8502 74.482 64.8852L74.4914 64.8663ZM93.2484 87.4173C89.465 85.953 85.3984 84.0162 81.3413 81.7111C79.6524 80.7569 78.0296 79.7554 76.4822 78.7446C74.982 75.3624 73.3686 72.2825 71.7175 69.6089C74.6613 70.7331 78.0296 71.7629 81.7093 72.6321C82.983 73.9642 84.2473 75.3624 85.4928 76.8267C88.5214 80.3884 91.1444 84.0068 93.2484 87.4079V87.4173ZM72.3119 87.7291C71.0665 86.2647 69.8871 84.7815 68.7737 83.3077C68.5473 79.6799 68.1039 76.2315 67.4811 73.1328C69.8493 75.1829 72.6516 77.2802 75.784 79.3209C76.5294 81.0025 77.2276 82.7503 77.8975 84.5453C79.5109 88.9195 80.728 93.2086 81.5206 97.1198C81.2658 96.9025 81.0205 96.6758 80.7563 96.4491C77.9635 93.9455 75.0858 90.9979 72.3025 87.7291H72.3119ZM57.4327 73.7091C58.2725 72.103 58.9707 70.582 59.5085 69.1554C60.0463 70.582 60.7445 72.103 61.5842 73.7091C61.1785 76.685 60.4897 79.9822 59.5085 83.4494C58.5366 79.9822 57.8384 76.6756 57.4327 73.7091ZM52.6303 72.1408C53.5172 71.3378 54.338 70.5253 55.0928 69.7317C55.4702 69.3349 55.8193 68.9476 56.1496 68.5697C56.159 70.0907 56.2911 71.7629 56.5175 73.5485C55.1023 76.2032 53.3096 79.0752 51.1867 82.0039C51.4697 78.4139 51.9698 75.0695 52.6208 72.1408H52.6303ZM51.5169 73.1233C50.9036 76.1749 50.4602 79.6043 50.2337 83.3171C49.1298 84.7815 47.9504 86.2647 46.6956 87.7291C43.6669 91.2908 40.5156 94.484 37.4869 97.1198C38.2794 93.2086 39.4871 88.9195 41.1006 84.5453C41.7704 82.7408 42.4686 80.9931 43.214 79.3209C46.2899 77.3085 49.1015 75.2112 51.5075 73.1328L51.5169 73.1233ZM48.6486 69.0704C50.3375 68.3807 51.866 67.6438 53.2058 66.8975C52.6869 68.3335 52.2245 69.9584 51.8188 71.7251C49.5355 73.7752 46.8465 75.8536 43.8839 77.8565C45.3935 74.5877 47.0164 71.6117 48.6486 69.0704ZM47.2994 69.5994C45.6483 72.2731 44.0254 75.3624 42.5347 78.7446C40.9779 79.7554 39.3551 80.7474 37.6756 81.7016C33.6091 84.0162 29.5331 85.953 25.7402 87.4173C27.882 83.9595 30.5238 80.3506 33.5242 76.8267C34.779 75.3624 36.0433 73.9642 37.3076 72.6321C40.9873 71.7629 44.3557 70.7331 47.2994 69.5994ZM45.9408 64.819C46.1578 64.8096 46.3653 64.8001 46.5824 64.7907C47.2711 64.7529 47.941 64.6962 48.5826 64.6395C49.4506 64.5545 50.2809 64.4506 51.064 64.3183C50.0828 65.4898 49.0921 66.8408 48.1108 68.3524C45.2803 69.4955 42.0063 70.5631 38.4493 71.4795C40.9968 68.9098 43.5442 66.6613 45.9502 64.8285L45.9408 64.819ZM43.1291 64.8852C43.6009 64.8852 44.0632 64.8852 44.5255 64.8663C42.0441 66.8313 39.4588 69.1932 36.8831 71.8574C35.0715 72.2825 33.2034 72.6699 31.288 73.0005C26.7592 73.7847 22.2398 74.2476 18.1166 74.3515C21.2774 71.8574 24.9854 69.3444 29.0708 67.0203C30.7502 66.0661 32.4297 65.1686 34.0903 64.3467C37.2322 64.6962 40.2891 64.8757 43.1197 64.8757L43.1291 64.8852ZM15.4842 59.4907C19.3054 58.2153 23.6645 57.1099 28.2971 56.3069C30.1936 55.9762 32.0806 55.7022 33.9393 55.4944C37.2793 57.1288 40.5344 58.4703 43.5631 59.4907C40.5344 60.5015 37.2793 61.8525 33.9393 63.4869C32.0806 63.2696 30.1936 63.0051 28.2971 62.6745C23.6645 61.8714 19.3054 60.7661 15.4842 59.4907ZM16.456 44.6015C16.5315 44.6015 16.6164 44.6015 16.6919 44.6015C20.0319 47.3224 24.089 50.081 28.6462 52.6791C29.9577 53.4254 31.2692 54.1245 32.5806 54.7953C31.1182 54.9842 29.6369 55.2015 28.1556 55.4566C22.9757 56.3541 18.2204 57.5917 14.1444 59.0089C5.78491 56.0518 0.350287 52.3201 0.897524 49.2874C1.02962 48.5411 1.54855 47.8703 2.38827 47.2751C4.77536 45.5935 9.83258 44.5826 16.4372 44.5826L16.456 44.6015ZM31.288 45.9714C33.2034 46.302 35.0715 46.6894 36.8831 47.1145C39.4588 49.7881 42.0441 52.1406 44.5255 54.1056C44.0726 54.0962 43.6103 54.0867 43.1291 54.0867C40.2891 54.0867 37.2416 54.2662 34.0997 54.6158C32.4391 53.7939 30.7597 52.9058 29.0802 51.9422C24.9948 49.6181 21.2774 47.1051 18.126 44.6109C19.9093 44.6487 21.7586 44.7621 23.655 44.9416C26.1459 45.1684 28.7217 45.5179 31.288 45.9619V45.9714ZM47.2994 49.3725C44.3557 48.2388 40.9873 47.209 37.3076 46.3398C36.0339 45.0172 34.7696 43.6095 33.5242 42.1452C30.4955 38.5835 27.8725 34.9651 25.7685 31.564C29.552 33.0284 33.6185 34.9651 37.6756 37.2703C39.3645 38.2339 40.9873 39.2259 42.5347 40.2273C44.0349 43.6095 45.6483 46.6988 47.2994 49.3725ZM51.8283 47.2846C52.234 49.0418 52.6963 50.6479 53.2058 52.0839C51.8566 51.3375 50.3375 50.6101 48.6486 49.911C47.0164 47.379 45.403 44.4031 43.8933 41.1343C46.9031 43.1749 49.5827 45.2628 51.8283 47.2846ZM51.5169 45.8391C49.1487 43.7985 46.3559 41.7011 43.214 39.6605C42.4781 37.9788 41.7704 36.2311 41.1006 34.4361C39.4871 30.0619 38.27 25.7727 37.4869 21.8615C40.5156 24.4973 43.6669 27.6906 46.6956 31.2523C47.941 32.7166 49.1204 34.1999 50.2337 35.6642C50.4602 39.3676 50.9036 42.797 51.5169 45.8391ZM51.866 16.741C53.8002 20.246 55.6684 24.2895 57.2723 28.6353C57.9422 30.4398 58.5272 32.2253 59.0556 33.9731C57.9894 37.5254 57.2157 40.8981 56.7345 43.9685C55.2155 41.2477 53.319 38.3378 51.0829 35.3619C50.9697 33.5385 50.9131 31.6585 50.9131 29.7407C50.9131 25.102 51.2622 20.6711 51.866 16.741ZM67.5094 45.8391C68.1227 42.797 68.5662 39.3582 68.7926 35.6548C69.8965 34.181 71.0854 32.7072 72.3214 31.2523C75.3595 27.6811 78.5202 24.4879 81.5583 21.8426C80.7563 25.8105 79.5203 30.0997 77.9164 34.4361C77.2559 36.2311 76.5483 37.9788 75.8029 39.6605C72.6704 41.7011 69.8777 43.7985 67.5094 45.8391ZM70.3777 49.911C68.6888 50.6101 67.1603 51.3375 65.8111 52.0839C65.896 51.8382 65.9904 51.5926 66.0659 51.3375C66.481 50.0999 66.8584 48.7395 67.1886 47.2846C69.4342 45.2628 72.1232 43.1749 75.1236 41.1343C73.614 44.3937 71.9911 47.3696 70.3683 49.9015L70.3777 49.911ZM71.7175 49.3819C73.3686 46.7083 74.982 43.6284 76.4822 40.2462C78.0296 39.2354 79.6524 38.2434 81.3413 37.2797C85.3984 34.9746 89.465 33.0378 93.2484 31.5735C91.1444 34.9746 88.5214 38.5929 85.4928 42.1546C84.2473 43.619 82.9736 45.0266 81.7093 46.3493C78.0296 47.2184 74.6613 48.2482 71.7175 49.3819ZM73.0856 54.1623C71.208 54.2473 69.4908 54.4174 67.9623 54.663C68.9436 53.4915 69.9343 52.1406 70.9155 50.629C73.7461 49.4764 77.02 48.4088 80.5771 47.5019C78.0296 50.0716 75.4821 52.3201 73.0762 54.1529L73.0856 54.1623ZM75.8878 54.0962C75.4161 54.0962 74.9537 54.0962 74.4914 54.1151C76.9729 52.15 79.5581 49.7976 82.1433 47.124C83.9454 46.6988 85.8136 46.3115 87.7383 45.9808C92.2766 45.1872 96.796 44.7338 100.938 44.6298C97.7301 47.1523 93.9938 49.6559 89.9461 51.9611C88.2667 52.9153 86.5872 53.8128 84.9267 54.6347C81.7848 54.2851 78.7372 54.1056 75.8973 54.1056L75.8878 54.0962ZM69.1417 57.8185C70.4721 57.0438 71.8873 56.0896 73.3403 54.9937C74.1612 54.9653 75.0104 54.9465 75.8784 54.9465C78.2655 54.9465 80.8224 55.0787 83.4548 55.3338C80.1714 56.8832 77.0012 58.1397 74.0857 59.0655C72.3402 58.527 70.6796 58.1113 69.1417 57.8279V57.8185ZM65.7451 59.5001C66.4527 59.2261 67.1886 58.886 67.9529 58.4798C69.387 58.6876 70.9438 59.0372 72.6044 59.5001C70.9438 59.963 69.387 60.3032 67.9529 60.5204C67.1886 60.1142 66.4433 59.7741 65.7451 59.5001ZM67.9623 64.3278C69.4908 64.5828 71.208 64.7529 73.0856 64.8285C75.4915 66.6613 78.0296 68.9098 80.5865 71.4795C77.0295 70.5725 73.7555 69.505 70.9249 68.3524C69.9437 66.8408 68.953 65.4898 67.9718 64.3183L67.9623 64.3278ZM65.3205 65.641C64.9903 64.8379 64.6412 64.1199 64.2921 63.4586C65.0091 63.6948 65.7922 63.9026 66.6508 64.0821C67.5849 65.1308 68.5379 66.359 69.4908 67.7477C67.934 67.0581 66.5376 66.3495 65.3299 65.6315L65.3205 65.641ZM66.3017 68.3902C66.1413 67.8706 65.9715 67.3793 65.8111 66.9069C67.1509 67.6533 68.6888 68.3902 70.3777 69.0893C72.01 71.6306 73.6234 74.5971 75.133 77.866C72.1232 75.8253 69.4342 73.7374 67.1886 71.7157C66.9245 70.5442 66.6225 69.4483 66.3112 68.3996L66.3017 68.3902ZM62.8391 67.2281C62.8013 66.359 62.7258 65.5559 62.6126 64.819C63.207 65.282 63.8769 65.7543 64.6223 66.2172C64.9242 66.9636 65.2073 67.7666 65.4715 68.6358C65.6696 69.2782 65.8583 69.949 66.0376 70.6387C64.8016 69.4672 63.726 68.3146 62.8391 67.2281ZM62.49 73.5674C62.7164 71.7818 62.8391 70.1096 62.8579 68.5886C63.8675 69.7506 65.0563 70.9599 66.4055 72.188C67.0754 75.164 67.5472 78.4989 67.8302 82.0417C65.7073 79.1036 63.9052 76.2315 62.4994 73.5674H62.49ZM57.4044 63.9404C57.678 63.6759 57.9234 63.4208 58.1498 63.1657C58.1498 63.4964 58.1687 63.8459 58.2064 64.2144C57.9139 64.7812 57.5365 65.3764 57.1025 66C57.1686 65.2536 57.2629 64.5639 57.4044 63.9499V63.9404ZM55.9797 62.9768C56.3194 62.8256 56.6496 62.665 56.9421 62.5044C56.8289 62.8162 56.7251 63.1563 56.6402 63.5153C56.159 63.9404 55.6118 64.375 54.9796 64.8096C55.3004 64.1294 55.6306 63.5247 55.9797 62.9862V62.9768ZM54.7154 63.4586C54.3475 64.1105 54.0078 64.8474 53.6776 65.641C52.4699 66.359 51.064 67.0675 49.5072 67.7572C50.4602 66.3684 51.4131 65.1402 52.3472 64.0916C53.2058 63.9121 53.9984 63.7042 54.7154 63.4586ZM51.0452 58.4798C51.8094 58.886 52.5548 59.2261 53.253 59.5001C52.5453 59.7741 51.8094 60.1142 51.0452 60.5204C49.611 60.3126 48.0542 59.9725 46.3937 59.5001C48.0542 59.0372 49.611 58.6876 51.0452 58.4798ZM49.8563 57.8185C48.3184 58.1019 46.6673 58.5176 44.9218 59.0561C42.0063 58.1397 38.8267 56.8737 35.5433 55.3243C38.1757 55.0693 40.7231 54.937 43.1197 54.937C43.9971 54.937 44.8463 54.9559 45.6577 54.9842C47.1107 56.0801 48.526 57.0249 49.8563 57.809V57.8185ZM51.9509 55.7117C52.5265 56.3447 53.102 56.9021 53.6587 57.3933C52.8756 57.4122 52.0453 57.4878 51.1584 57.6106C49.9035 56.9304 48.5637 56.0896 47.1673 55.0882C48.9317 55.211 50.5357 55.4188 51.9509 55.7117ZM48.0825 50.6384C49.0638 52.15 50.0639 53.501 51.0357 54.6725C49.5072 54.4174 47.79 54.2568 45.9219 54.1718C43.5159 52.339 40.9685 50.0905 38.421 47.5208C41.978 48.4277 45.252 49.4953 48.0825 50.6479V50.6384ZM56.1401 50.4117C55.14 49.2591 53.9606 48.0593 52.6114 46.8311C51.9604 43.9024 51.4697 40.5674 51.1773 36.9774C53.2907 39.9061 55.0928 42.7781 56.5081 45.4329C56.2722 47.2279 56.1496 48.8906 56.1401 50.4117ZM59.0461 51.1202C58.7725 51.9516 58.5649 52.7263 58.414 53.4538C58.0177 52.8113 57.5554 52.1595 57.0176 51.4792C56.9893 50.0905 57.0648 48.5411 57.244 46.8689C57.9894 48.3805 58.6027 49.8165 59.0556 51.1297L59.0461 51.1202ZM61.5748 45.2912C61.0181 46.3493 60.5275 47.3885 60.0934 48.3899C59.8764 48.8906 59.6877 49.3725 59.5085 49.8354C58.9707 48.4088 58.2725 46.8878 57.4327 45.2723C57.8384 42.2963 58.5272 38.9992 59.5085 35.532C60.4897 38.9992 61.1785 42.3058 61.5842 45.2817L61.5748 45.2912ZM62.2824 43.9969C61.8012 40.9264 61.0275 37.5443 59.9519 33.9826C60.4803 32.2348 61.0747 30.4398 61.7351 28.6448C63.3391 24.2989 65.1978 20.2554 67.1415 16.7504C67.7548 20.6806 68.0944 25.1114 68.0944 29.7501C68.0944 31.668 68.0378 33.548 67.9152 35.3713C65.7262 38.3001 63.8109 41.2193 62.2635 43.9874L62.2824 43.9969ZM66.3867 46.8405C65.0469 48.0593 63.858 49.2591 62.8674 50.4211C62.8485 48.9001 62.7258 47.2184 62.49 45.4234C63.9241 42.7215 65.7262 39.8683 67.8208 36.9774C67.5377 40.5769 67.0377 43.9213 66.3867 46.85V46.8405ZM64.6223 52.8019C63.8769 53.2554 63.207 53.7277 62.6126 54.1907C62.7258 53.4443 62.8013 52.6413 62.8391 51.7816C63.7165 50.6951 64.7921 49.5614 66.0093 48.3899C65.9621 48.5789 65.9149 48.7678 65.8677 48.9473C65.4903 50.355 65.0752 51.6493 64.6223 52.7924V52.8019ZM64.2826 55.5511C64.6506 54.8992 64.9903 54.1718 65.3205 53.3687C66.5282 52.6507 67.9246 51.9327 69.4814 51.2525C68.5284 52.6413 67.5755 53.8789 66.6508 54.9181C65.7922 55.0976 64.9997 55.3055 64.2826 55.5511ZM64.0279 57.4217C63.6505 57.45 63.2825 57.4878 62.9523 57.5445C63.1599 57.2989 63.3674 57.0249 63.5656 56.7415C64.16 56.4958 64.8393 56.2785 65.5752 56.0707C65.0469 56.5903 64.5279 57.0438 64.0279 57.4217ZM65.3394 57.4122C65.9055 56.921 66.4716 56.3541 67.0471 55.7306C68.4624 55.4377 70.0664 55.2299 71.8307 55.1071C70.4343 56.099 69.0945 56.9493 67.8397 57.6295C66.9528 57.5067 66.113 57.4311 65.3394 57.4122ZM64.2921 59.0277C63.9901 58.9427 63.6977 58.8766 63.4146 58.8294C63.7071 58.6687 63.9901 58.4798 64.2826 58.2625C64.4996 58.2531 64.7166 58.2531 64.9242 58.2531C65.4054 58.2531 65.9243 58.2814 66.4527 58.3286C65.7639 58.6404 65.1035 58.8955 64.4808 59.0844C64.4242 59.0655 64.3581 59.0466 64.3015 59.0277H64.2921ZM65.3394 61.6258C66.1225 61.6069 66.9528 61.5313 67.8397 61.4085C69.0945 62.0793 70.4343 62.9295 71.8307 63.931C70.0664 63.8082 68.4624 63.5909 67.0471 63.3074C66.4716 62.6745 65.896 62.1076 65.3394 61.6258ZM62.9617 61.4935C63.3014 61.5502 63.6505 61.5786 64.0279 61.6069C64.5279 61.9848 65.0469 62.4383 65.5752 62.9579C64.8393 62.7595 64.1694 62.5422 63.575 62.2966C63.3769 62.0037 63.1693 61.7392 62.9617 61.4935ZM62.0559 62.5233C62.3484 62.6839 62.6692 62.8445 63.0089 62.9957C63.358 63.5247 63.6882 64.1388 64.0184 64.819C63.3957 64.3939 62.8391 63.9593 62.3673 63.5342C62.2824 63.1752 62.1786 62.8445 62.0654 62.5233H62.0559ZM60.8011 64.2522C60.8388 63.8837 60.8577 63.5247 60.8671 63.1846C61.0936 63.4397 61.3294 63.7042 61.6125 63.9593C61.754 64.5828 61.8484 65.2725 61.9144 66.0189C61.471 65.4048 61.103 64.8096 60.8105 64.2427L60.8011 64.2522ZM54.989 61.6069C55.3664 61.5786 55.7344 61.5408 56.0646 61.4841C55.8571 61.7297 55.6589 62.0037 55.4608 62.2871C54.8664 62.5327 54.1871 62.7595 53.4511 62.9579C53.9795 62.4383 54.4984 61.9848 54.9985 61.6069H54.989ZM53.6776 61.6258C53.1115 62.1076 52.5453 62.6745 51.9698 63.3074C50.5545 63.5909 48.9506 63.7987 47.1862 63.931C48.5826 62.9295 49.9224 62.0793 51.1773 61.4085C52.0642 61.5313 52.9039 61.6069 53.6776 61.6258ZM55.6023 60.2087C55.3193 60.3787 55.0268 60.5582 54.7343 60.7755C54.5173 60.785 54.3003 60.7944 54.0927 60.7944C53.6115 60.7944 53.0926 60.7661 52.5642 60.7188C53.253 60.4071 53.9229 60.152 54.5362 59.9536C54.9041 60.067 55.2532 60.1425 55.6023 60.2087ZM54.7343 58.2625C55.0268 58.4798 55.3193 58.6687 55.6023 58.8294C55.2627 58.8955 54.9041 58.9805 54.5362 59.0844C53.9134 58.8955 53.253 58.6404 52.5642 58.3286C53.0926 58.2814 53.6115 58.2531 54.0927 58.2531C54.3003 58.2531 54.5173 58.2531 54.7343 58.2625ZM55.4514 56.7415C55.6495 57.0343 55.8571 57.2989 56.0646 57.5445C55.725 57.4878 55.3759 57.45 54.9985 57.4217C54.4984 57.0438 53.9795 56.5903 53.4511 56.0707C54.1871 56.2691 54.8569 56.4864 55.4514 56.7415ZM53.6964 53.3782C53.6964 53.3782 53.7059 53.416 53.7153 53.4349C53.7436 53.4915 53.7625 53.5482 53.7908 53.6049C53.8568 53.7561 53.9134 53.8883 53.9795 54.03C54.2248 54.578 54.4795 55.0882 54.7343 55.5511C54.0172 55.3149 53.2247 55.1071 52.3661 54.9181C51.4414 53.8694 50.4885 52.6413 49.5355 51.2525C51.0923 51.9422 52.4982 52.6507 53.7059 53.3687L53.6964 53.3782ZM58.1498 55.844C57.9328 55.5889 57.6875 55.3244 57.4139 55.0693C57.2723 54.4457 57.1686 53.7561 57.1025 53.0097C57.546 53.6238 57.9045 54.2096 58.2064 54.7764C58.1687 55.1543 58.1498 55.5039 58.1404 55.844H58.1498ZM59.933 54.6347C59.7632 54.9653 59.6217 55.296 59.5085 55.6172C59.3952 55.3055 59.2537 54.9842 59.0933 54.6536C59.1782 54.0206 59.3198 53.3404 59.5179 52.6035C59.716 53.3309 59.8576 54.0112 59.9425 54.6441L59.933 54.6347ZM61.6031 55.0693C61.3294 55.3338 61.0841 55.5889 60.8577 55.8534C60.8577 55.5133 60.8388 55.1637 60.7916 54.7858C61.0936 54.219 61.4615 53.6238 61.8955 53.0097C61.8295 53.7561 61.7257 54.4457 61.5936 55.0693H61.6031ZM63.0278 56.0329C62.6787 56.1841 62.3579 56.3447 62.0559 56.5147C62.1692 56.203 62.2729 55.8629 62.3579 55.5039C62.8391 55.0787 63.3863 54.6441 64.0184 54.219C63.6977 54.8992 63.3674 55.5039 63.0278 56.0424V56.0329ZM56.6591 55.5039C56.744 55.8629 56.8478 56.1935 56.961 56.5147C56.6685 56.3447 56.3477 56.1935 56.008 56.0424C55.6589 55.5133 55.3287 54.8992 54.9985 54.219C55.6212 54.6441 56.1779 55.0787 56.6496 55.5039H56.6591ZM64.2921 60.7661C63.9996 60.5488 63.7071 60.3693 63.424 60.1992C63.7637 60.1331 64.1222 60.0575 64.4902 59.9442C65.1129 60.1331 65.7734 60.3882 66.4621 60.7094C65.9338 60.7566 65.4148 60.785 64.9337 60.785C64.7261 60.785 64.5185 60.785 64.2921 60.7661ZM61.9993 51.4792C61.4615 52.1595 60.9898 52.8302 60.5935 53.4632C60.4425 52.7263 60.235 51.9422 59.9613 51.1202C60.2255 50.3644 60.5275 49.5709 60.8954 48.73C61.1596 48.116 61.4615 47.483 61.7729 46.8405C61.9522 48.5222 62.0276 50.0905 61.9993 51.4887V51.4792ZM56.1779 51.7816C56.2062 52.6413 56.2817 53.4443 56.3949 54.1907C55.8005 53.7277 55.1306 53.2554 54.3946 52.8019C53.8851 51.5076 53.4134 50.0243 52.9982 48.3899C54.2154 49.5614 55.291 50.6951 56.1779 51.7816ZM59.4518 66.2172C59.282 65.5748 59.1594 64.9702 59.0839 64.4033C59.2537 64.0727 59.3952 63.742 59.5085 63.4208C59.6311 63.742 59.7632 64.0632 59.933 64.3939C59.8481 65.0269 59.7066 65.7071 59.5085 66.4345C59.4896 66.359 59.4707 66.2928 59.4518 66.2172ZM61.7729 72.1503C61.0275 70.6387 60.4237 69.2121 59.9613 67.8895C60.235 67.0675 60.4425 66.2834 60.5935 65.5465C60.9898 66.1889 61.4615 66.8502 61.9993 67.5399C62.0276 68.9287 61.9522 70.4781 61.7729 72.1503ZM35.5527 63.6759C38.8361 62.1265 42.0063 60.87 44.9312 59.9536C46.6767 60.4921 48.3373 60.9078 49.8658 61.1912C48.5354 61.9753 47.1202 62.9201 45.6671 64.0066C44.8463 64.0443 44.0066 64.0632 43.1291 64.0632C40.742 64.0632 38.1851 63.931 35.5527 63.6759ZM54.4701 69.1837C54.0078 69.675 53.5077 70.1663 52.9888 70.667C53.4039 69.0231 53.8757 67.5304 54.3852 66.2267C55.1306 65.7638 55.791 65.3009 56.3854 64.8285C56.2722 65.5748 56.1967 66.3779 56.159 67.247C55.6589 67.8706 55.0928 68.5224 54.4607 69.1837H54.4701ZM57.027 67.5493C57.5648 66.8691 58.0366 66.1984 58.4329 65.5654C58.5838 66.3023 58.7914 67.077 59.065 67.8989C58.6121 69.2121 57.9988 70.6481 57.2535 72.1597C57.0742 70.4875 56.9987 68.9381 57.027 67.5493ZM64.1034 5.47019C64.1411 5.55522 64.1788 5.64025 64.226 5.73472C64.2732 5.83864 64.3204 5.94256 64.3675 6.04649C65.4148 8.50282 66.2923 11.7055 66.9433 15.3995C64.8016 19.1312 62.7353 23.5431 60.952 28.3519C60.4331 29.7596 59.9519 31.1578 59.5179 32.5277C59.0839 31.1578 58.6027 29.769 58.0838 28.3519C56.31 23.5431 54.2437 19.1312 52.0925 15.3995C53.6021 6.78339 56.3949 0.840945 59.5179 0.840945C59.6594 0.840945 59.7915 0.850392 59.933 0.878734C61.3955 1.13382 62.8485 2.74933 64.1128 5.47019H64.1034ZM51.0829 83.6478C53.319 80.6718 55.2249 77.762 56.7345 75.0412C57.2157 78.1021 57.9894 81.4749 59.065 85.0366C58.5366 86.7843 57.9422 88.5793 57.2818 90.3744C55.6778 94.7202 53.8191 98.7731 51.8755 102.269C51.2716 98.3386 50.9225 93.9077 50.9225 89.269C50.9225 87.3512 50.9791 85.4711 51.0923 83.6478H51.0829ZM68.1133 89.269C68.1133 93.9077 67.7642 98.3386 67.1603 102.269C65.2261 98.7731 63.358 94.7202 61.754 90.3744C61.0841 88.5699 60.4991 86.7843 59.9708 85.0366C61.0369 81.4843 61.8106 78.1116 62.2918 75.0412C63.8109 77.762 65.7073 80.6718 67.9529 83.6572C68.0567 85.49 68.1133 87.3606 68.1133 89.269ZM98.1641 97.6772C98.2019 97.8095 98.2396 97.9418 98.2774 98.0646C98.3245 98.2441 98.3811 98.433 98.4283 98.6125C98.4283 98.6314 98.4283 98.6503 98.4378 98.6598C99.051 101.211 98.9378 103.119 98.0509 104.158C97.966 104.262 97.8622 104.357 97.7584 104.451C97.2584 104.867 96.579 105.075 95.7299 105.075C92.6257 105.075 87.8421 102.429 82.6151 98.074C81.8319 93.8699 80.5299 89.1745 78.7184 84.2808C78.1994 82.8731 77.6522 81.5127 77.0955 80.1806C78.3221 80.9458 79.5958 81.7205 80.9167 82.4669C85.3701 84.9988 89.8329 87.0867 93.9561 88.6077C95.8808 91.8765 97.3055 94.9091 98.0981 97.4599C98.117 97.5261 98.1453 97.6017 98.1641 97.6772ZM102.57 44.6298C111.496 44.6298 117.591 46.4721 118.11 49.3347C118.487 51.4414 115.846 54.0867 110.864 56.5714C109.09 57.4595 107.09 58.2908 104.92 59.0655C100.834 57.639 96.0601 56.4108 90.8708 55.5039C89.3895 55.2488 87.9082 55.022 86.4457 54.8425C87.7572 54.1718 89.0592 53.4726 90.3802 52.7263C94.8241 50.1944 98.9001 47.4263 102.325 44.6487C102.41 44.6487 102.495 44.6487 102.58 44.6487L102.57 44.6298ZM106.165 59.5096C108.005 58.8293 109.713 58.0925 111.251 57.3272C116.676 54.6158 119.412 51.7249 118.95 49.1835C118.365 45.8958 112.543 43.8929 103.335 43.789C104.825 42.5231 106.184 41.2571 107.363 40.01C111.515 35.6359 113.09 31.9986 111.779 29.7596C110.958 28.3519 109.137 27.6433 106.363 27.6433C103.41 27.6433 99.5417 28.4653 95.2487 29.9485C99.5888 22.3339 100.966 16.1269 98.3057 13.9257C97.6452 13.3871 96.7772 13.1037 95.7299 13.1037C92.6068 13.1037 87.9365 15.579 82.8321 19.7075C83.1529 17.7802 83.3604 15.9569 83.4642 14.2374C83.7944 8.25719 82.6245 4.47821 80.1619 3.59015C79.8034 3.45789 79.4165 3.39175 79.0108 3.39175C75.8501 3.39175 71.6326 7.59587 67.6321 14.228C67.0188 11.0442 66.2263 8.25719 65.2922 6.02759C65.2827 5.9898 65.2639 5.95201 65.2544 5.92367C65.179 5.75361 65.1035 5.59301 65.0374 5.42296C64.9714 5.29069 64.9148 5.15843 64.8582 5.02616C64.8487 4.99782 64.8299 4.97893 64.8204 4.95058C63.2825 1.729 61.4615 0.00012207 59.5273 0.00012207C56.0458 0.00012207 53.0548 5.64024 51.4131 14.2374C47.4032 7.60531 43.1857 3.4012 40.0344 3.4012C39.6287 3.4012 39.2418 3.46733 38.8833 3.5996C35.6093 4.77108 34.7602 11.0725 36.1943 19.698C31.0899 15.579 26.4195 13.1132 23.3059 13.1132C22.2586 13.1132 21.3812 13.3871 20.7301 13.9351C18.06 16.1364 19.447 22.3433 23.7871 29.958C19.4847 28.4747 15.6352 27.6528 12.6725 27.6528C9.90806 27.6528 8.07765 28.3613 7.25679 29.769C5.52073 32.745 8.96455 38.1017 15.6824 43.7985C10.1345 43.8646 5.82265 44.611 3.14308 45.9241C1.37871 46.7839 0.321982 47.8892 0.0861039 49.193C-0.517743 52.5657 4.57722 56.4391 12.8518 59.5285C4.53948 62.5611 -0.555484 66.4345 0.0483634 69.8167C0.642776 73.1044 6.44537 75.0979 15.6446 75.2112C8.92681 80.908 5.47355 86.2647 7.21905 89.2407C8.03991 90.6483 9.86088 91.3569 12.6348 91.3569C15.5974 91.3569 19.4658 90.5255 23.7682 89.0423C22.7964 90.7428 21.9661 92.3867 21.2868 93.9549C18.8997 99.4723 18.6922 103.412 20.6924 105.075C21.3529 105.623 22.2209 105.897 23.2682 105.897C26.3818 105.897 31.0522 103.431 36.1566 99.3117C34.7224 107.937 35.5716 114.239 38.8456 115.41C39.2135 115.542 39.5909 115.608 39.9966 115.608C43.148 115.608 47.3655 111.404 51.3754 104.772C53.0171 113.36 56.008 119 59.4896 119C62.9711 119 65.9621 113.36 67.6038 104.772C71.6043 111.404 75.8312 115.608 78.9825 115.608C79.3882 115.608 79.7751 115.542 80.1336 115.41C83.4076 114.239 84.2568 107.937 82.8226 99.3117C87.9176 103.431 92.588 105.897 95.711 105.897C96.7677 105.897 97.6358 105.623 98.2868 105.075C99.8624 103.771 100.061 101.05 98.9189 97.2616C98.8906 97.1482 98.8529 97.0443 98.8246 96.9309C98.7963 96.8459 98.7585 96.7514 98.7302 96.6569C97.9849 94.3895 96.8055 91.8104 95.2298 89.0423C99.5228 90.5255 103.382 91.3569 106.344 91.3569C109.109 91.3569 110.939 90.6483 111.76 89.2407C113.496 86.2647 110.052 80.908 103.335 75.2112C112.534 75.0979 118.346 73.1044 118.931 69.8167C119.535 66.4345 114.43 62.5611 106.146 59.4718L106.165 59.5096Z" fill="#565449"/>
</g>
<defs>
<clipPath id="clip0_1376_47">
<rect width="119" height="119" fill="white"/>
</clipPath>
</defs>
</svg>
